<svg xmlns="http://www.w3.org/2000/svg"
    xmlns:xlink="http://www.w3.org/1999/xlink" viewBox="5.018896102905273 5.999000072479248 14.98210334777832 15.001998901367188" preserveAspectRatio="xMinYMin meet">
    <defs>
        <filter id="Filter_0">
            <feOffset in="SourceAlpha" dx="0" dy="0" />
            <feGaussianBlur result="blurOut" stdDeviation="2.646" />
            <feFlood flood-color="rgb(0, 0, 0)" result="floodOut" />
            <feComposite operator="out" in="floodOut" in2="blurOut" result="compOut" />
            <feComposite operator="in" in="compOut" in2="SourceAlpha" />
            <feComponentTransfer>
                <feFuncA type="linear" slope="0.3"/>
            </feComponentTransfer>
            <feBlend mode="multiply" in2="SourceGraphic" />
        </filter>

    </defs>
    <g filter="url(#Filter_0)">
        <path fill-rule="evenodd" fill="rgb(199, 199, 199)" d="M11.868,6.226 C11.347,6.226 11.427,6.456 11.146,6.495 C10.865,6.534 11.203,6.384 10.361,6.542 C9.518,6.700 9.221,7.765 9.181,8.160 C9.141,8.555 9.131,9.665 9.157,10.257 C9.237,10.612 8.957,10.612 8.957,10.612 C8.452,10.580 8.679,12.128 8.679,12.128 C8.751,12.509 8.653,12.699 9.400,12.995 C9.756,13.993 10.686,14.521 10.686,14.521 C10.686,14.521 10.691,15.136 10.705,15.592 C10.629,15.555 10.965,16.757 8.643,17.095 C6.321,17.431 5.877,18.172 5.439,18.583 C5.001,18.996 5.019,20.993 5.019,20.993 L20.001,21.001 C20.001,21.001 19.890,18.996 19.452,18.583 C19.015,18.172 18.538,17.431 16.216,17.095 C13.959,16.773 14.331,15.588 14.315,15.517 C14.319,15.337 14.343,14.576 14.343,14.576 C14.343,14.576 15.131,13.963 15.487,12.965 C16.048,12.617 16.261,12.569 16.353,12.168 C16.353,12.168 16.518,10.604 15.989,10.612 C15.989,10.612 15.739,10.691 15.819,10.336 C15.899,9.980 15.872,8.871 15.832,8.476 C15.792,8.081 15.853,6.953 15.010,6.795 C14.435,6.690 14.360,6.794 14.080,6.755 C13.799,6.715 13.464,5.999 12.943,5.999 L11.868,6.226 Z"/>
    </g>
</svg>